<svg width="8" height="8" xmlns="http://www.w3.org/2000/svg" xmlns:xlink="http://www.w3.org/1999/xlink"><defs><filter x="-22.7%" y="-11.9%" width="145.3%" height="128%" filterUnits="objectBoundingBox" id="a"><feMorphology radius="4" operator="dilate" in="SourceAlpha" result="shadowSpreadOuter1"/><feOffset dy="9" in="shadowSpreadOuter1" result="shadowOffsetOuter1"/><feGaussianBlur stdDeviation="14" in="shadowOffsetOuter1" result="shadowBlurOuter1"/><feColorMatrix values="0 0 0 0 0 0 0 0 0 0 0 0 0 0 0 0 0 0 0.05 0" in="shadowBlurOuter1" result="shadowMatrixOuter1"/><feOffset dy="6" in="SourceAlpha" result="shadowOffsetOuter2"/><feGaussianBlur stdDeviation="8" in="shadowOffsetOuter2" result="shadowBlurOuter2"/><feColorMatrix values="0 0 0 0 0 0 0 0 0 0 0 0 0 0 0 0 0 0 0.08 0" in="shadowBlurOuter2" result="shadowMatrixOuter2"/><feMorphology radius="2" in="SourceAlpha" result="shadowSpreadOuter3"/><feOffset dy="3" in="shadowSpreadOuter3" result="shadowOffsetOuter3"/><feGaussianBlur stdDeviation="3" in="shadowOffsetOuter3" result="shadowBlurOuter3"/><feColorMatrix values="0 0 0 0 0 0 0 0 0 0 0 0 0 0 0 0 0 0 0.12 0" in="shadowBlurOuter3" result="shadowMatrixOuter3"/><feMerge><feMergeNode in="shadowMatrixOuter1"/><feMergeNode in="shadowMatrixOuter2"/><feMergeNode in="shadowMatrixOuter3"/></feMerge></filter><rect id="c" x="0" y="0" width="162" height="8" rx="4"/><path d="M21.586.586a2 2 0 0 1 2.828 0L29.828 6a4 4 0 0 0 2.829 1.172h215.087c3.567 0 4.86.37 6.163 1.068a7.27 7.27 0 0 1 3.024 3.024c.698 1.304 1.069 2.597 1.069 6.163v389.489c0 3.566-.371 4.86-1.069 6.163a7.27 7.27 0 0 1-3.024 3.024c-1.303.697-2.596 1.069-6.163 1.069H10.256c-3.567 0-4.86-.372-6.163-1.069a7.27 7.27 0 0 1-3.024-3.024C.37 411.775 0 410.482 0 406.916V17.427c0-3.566.371-4.86 1.069-6.163A7.27 7.27 0 0 1 4.093 8.24c1.303-.697 2.596-1.068 6.163-1.068h3.087A4 4 0 0 0 16.172 6Z" id="b"/></defs><g fill="none" fill-rule="evenodd"><path fill="#F0F2F5" d="M-121-1367H879V317H-121z"/><g transform="translate(-60 -211.172)"><use fill="#000" filter="url(#a)" xlink:href="#b"/><use fill="#FFF" xlink:href="#b"/></g><g transform="translate(-8)"><mask id="d" fill="#fff"><use xlink:href="#c"/></mask><g mask="url(#d)" fill="#000" fill-opacity=".056"><path d="M8 4v4H4V4h4Zm8 0v4h-4V4h4Zm8 0v4h-4V4h4Zm8 0v4h-4V4h4Zm8 0v4h-4V4h4Zm8 0v4h-4V4h4Zm8 0v4h-4V4h4Zm8 0v4h-4V4h4Zm72 0v4h-4V4h4Zm-8 0v4h-4V4h4Zm-8 0v4h-4V4h4Zm-8 0v4h-4V4h4Zm-8 0v4h-4V4h4Zm-8 0v4h-4V4h4Zm-8 0v4h-4V4h4Zm-8 0v4h-4V4h4Zm-8 0v4h-4V4h4Zm88 4h-4V4h4V0h4v4h2V0h4v4h-3v4h-4V4h-3v4Zm-8-4v4h-4V4h4Zm-8 0v4h-4V4h4ZM44 0v4h-4V0h4ZM28 0v4h-4V0h4Zm-8 0v4h-4V0h4Zm-8 0v4H8V0h4ZM4 0v4H0V0h4Zm72 0v4h-4V0h4Zm8 0v4h-4V0h4Zm8 0v4h-4V0h4Zm8 0v4h-4V0h4Zm8 0v4h-4V0h4Zm8 0v4h-4V0h4Zm8 0v4h-4V0h4Zm8 0v4h-4V0h4ZM52 0v4h-4V0h4Zm8 0v4h-4V0h4Zm8 0v4h-4V0h4Zm72 0v4h-4V0h4Zm8 0v4h-4V0h4Zm8 0v4h-4V0h4ZM36 0v4h-4V0h4Z"/></g></g></g></svg>